<svg viewBox="0 -1984 6434 2478" xmlns="http://www.w3.org/2000/svg">
<path fill="currentColor" d="M764 24Q561 24 396.5 -65Q232 -154 136 -325.5Q40 -497 40 -744Q40 -993 136 -1165Q232 -1337 396.5 -1425.5Q561 -1514 764 -1514Q967 -1514 1131 -1425.5Q1295 -1337 1391.5 -1165Q1488 -993 1488 -744Q1488 -496 1391.5 -324.5Q1295 -153 1131 -64.5Q967 24 764 24ZM764 -336Q862 -336 930 -384.5Q998 -433 1033 -524.5Q1068 -616 1068 -744Q1068 -873 1033 -965Q998 -1057 930 -1105.5Q862 -1154 764 -1154Q667 -1154 599 -1105.5Q531 -1057 495.5 -965Q460 -873 460 -744Q460 -616 495.5 -524.5Q531 -433 599 -384.5Q667 -336 764 -336Z M1614 0V-1056H1998V-800H1983Q2008 -897 2059 -959Q2110 -1021 2179 -1050.5Q2248 -1080 2324 -1080Q2442 -1080 2533.5 -1011Q2625 -942 2642 -800H2614Q2631 -894 2684 -956Q2737 -1018 2812.5 -1049Q2888 -1080 2971.8 -1080Q3077.6 -1080 3158.4 -1034Q3239.2 -988 3284.6 -904Q3330 -820 3330 -706V0H2930V-606Q2930 -677.6 2893.1 -719.8Q2856.2 -762 2794 -762Q2754.1 -762 2724.8 -743Q2695.5 -724 2678.7 -689.1Q2662 -654.2 2662 -606V0H2282V-606Q2282 -678 2245.5 -720Q2209 -762 2146.6 -762Q2106.7 -762 2076.8 -743Q2047 -724 2030.5 -689.1Q2014 -654.1 2014 -606V0Z M3502 0V-1056H3902V0ZM3701 -1126Q3607 -1126 3547.5 -1180.2Q3488 -1234.3 3488 -1318.8Q3488 -1403 3547.5 -1456.5Q3607 -1510 3700.5 -1510Q3794.7 -1510 3854.4 -1456.6Q3914 -1403.2 3914 -1318.3Q3914 -1234 3854.3 -1180Q3794.6 -1126 3701 -1126Z M4432 -240V-712H4478L4746 -1056H5198L4750 -498H4638ZM4074 0V-1490H4474V0ZM4756 0 4504 -410 4762 -690 5210 0Z M5812 24Q5641 24 5511 -43.5Q5381 -111 5308.5 -235Q5236 -359 5236 -528Q5236 -697 5308.5 -820.5Q5381 -944 5511 -1012Q5641 -1080 5812 -1080Q5984 -1080 6113.5 -1012Q6243 -944 6315.5 -820.5Q6388 -697 6388 -528Q6388 -359 6315.5 -235Q6243 -111 6113.5 -43.5Q5984 24 5812 24ZM5812 -288Q5860 -288 5899 -315Q5938 -342 5961 -395.5Q5984 -449 5984 -528Q5984 -608 5961 -661Q5938 -714 5899 -741Q5860 -768 5812 -768Q5765 -768 5725.5 -741Q5686 -714 5663 -661Q5640 -608 5640 -528Q5640 -449 5663 -395.5Q5686 -342 5725.5 -315Q5765 -288 5812 -288Z"/>
</svg>